/* XPM */
static char *result[] = {
/* columns rows colors chars-per-pixel */
"48 48 22 1 ",
"  c black",
". c #7C561F",
"X c #7C6022",
"o c #7C6B23",
"O c #32295E",
"+ c #35386B",
"@ c #B27B2C",
"# c #B28A30",
"$ c #B29932",
"% c #FFB03F",
"& c #B1A657",
"* c #FFC545",
"= c #FFDB48",
"- c #FDEE7D",
"; c #20528C",
": c #1B71B3",
"> c #1B83C8",
", c #3B97D1",
"< c #6DBCED",
"1 c #C3E6FA",
"2 c gray96",
"3 c white",
/* pixels */
"-======%%***====-33======%%%***=======--======%%",
"=====%%%%***==-333=====%%%*****======---=====%%*",
"===%%%%****==--3====%%%%%*****===------====%%%**",
"%%%%%%****==-====%%%%%%***=====------======%%%**",
"%*********--===%%%%%%***======----========%%%***",
"****=====--===%%**%****======--=======%%%%%%***=",
"*======---===%%*******=====---====%%%%%%%%%****=",
"=-------===%%%******======--===%%%%%*******33*==",
"-=========%%**==========---===%%%*==*****333====",
"-%%%%%==%%***========----====%%%*******333====--",
"%%%%%%%=%%**==--------======%%**********=====--=",
"%*****%%***==--==----====%%%%********=======--==",
"***==*****=3------====%=%%%********=======---=%%",
"**=======-33-========%%%3  *****==**=====--===%%",
"**=====---=======%%%%%** ++  *==*==**==---===%**",
"====----======%%%%%*****  ;;+ ********---===%%**",
"==---=======%%%%********* ;1: ===**==--====%%***",
"=--=======%%%%%********== ,1,+  ===---====%%****",
"===%%%===%%%%*****===   +;,2;1,+ ---=====%%%****",
"%=%%%%%%=%*****==== ;,,,<;+2;<,, --======%%****=",
"*%%****%%%****==== ,,,<<<:;+,<<+ ======%%%%***=-",
"*************=====;,<<<;;;;:<,, ======%%%***==--",
"************=====+<<<,;;,,,;+  %@$$$%%%****==--=",
"******==*======== <,,;;221:,+ %%@@@%%%%%**=33-==",
"***============-- ,,+;122:,; %@@@##*****===3--==",
"**===========---- ,,+112,,:; %#.##******===--==%",
"*==3=---------  +;:O;,1:,;;+ #XX##=****===--==%%",
"==3--------- +><;<:O;;:::;; XXX##$==**===--===%*",
"=----======= +++<<<1 ;;;;+ =oX##$=======--===%**",
"--=========== ;,+;;*+     $oX##$===------===%%*=",
"-==%==%%%%===% ,+<<*+ #*##XXX#$=----======%%**==",
"=%%%%%%%*%%%%% ;++*< =$$oooo=-&--=======%%%**===",
"%%%%%%%****%%%% ;;++ =$$$$o&&&====%%==%%%=***===",
"%**********%%***  ;; $$$$&&-==%%%%%%%%==****====",
"%****************=  ==$$&-===%%%%%%=*******=====",
"******==**=============--==%%%%%*********===----",
"****=****=============--==%%%******===333---====",
"***=================---=%%%**=**===3-33=========",
"*%%%%%%===========---==%%%****====3--========%%%",
"%%%=======---------====%%%**=====--======%%%%%**",
"*%=====----=========%%%%%**=====--====%%%%%%%***",
"%%====--========%%%%%%%***=====--===%%%%%*****==",
"====3-======%%%%%%%%%%***=====--==%%%%%******===",
"===-====%%%%%%%*********=====--==%%%%*****======",
"==-==%%%%%%**%********==------=%%%%%**==========",
"==-==%%%*%**********=----=====%%%%***===========",
"=-==%%%*****========--======%%%%****============",
"====%%%==**=========-======%%%%**==============="
};
