/* XPM */
static char *result[] = {
/* columns rows colors chars-per-pixel */
"48 48 21 1 ",
"  c #040406",
". c #060608",
"X c #574B18",
"o c #7C561F",
"O c #57512B",
"+ c #7C6022",
"@ c #7C6B23",
"# c #7C743D",
"$ c #B4202A",
"% c #B27B2C",
"& c #B28A30",
"* c #B29932",
"= c #F9A31B",
"- c #FFB03F",
"; c #FFF200",
": c #B1A657",
"> c #FFC545",
", c #FFDB48",
"< c #FFEF4D",
"1 c #FDEE7D",
"2 c white",
/* pixels */
"1,,,,,,-->>>,,,,122,,,,,,--->>>,,,,,,,11,,,,,,--",
",,,,,---->>>,,1222,,,,,--->>>>>,,,,,,111,,,,,-->",
",,,---->>>>,,112,,,,----->>>>>,,,111111,,,,--->>",
"------>>..,,1,,,,------>>>,,,,,111111,,,,,,--->>",
"->>>>>>>....,,,------>>>,,,,,,11.....,,,,,--->>>",
">>>>,,,,....,,-->>->>>>,,,,,,11,.....,------>>>,",
">,,,,,,1..;;..->>>>>>>,,,,,111.......------>>>>,",
",1111111..;;..>>>>>>,,,,,,11,,.......>>>>>>22>,,",
"1,,,,,,,..;;;;..,,,,,,,,111,,,.......>>>>222,,,,",
"1-----,,..;;;;..,,,,,1111,,,,-.......>>222,,,,11",
"-------,..;;;;;;..1111,,,,,,..;;;....>>>,,,,,11,",
"->>>>>--..;;;;;;..111,,,,---..;;;....,,,,,,,11,,",
">>>,..............,,,,-,--..;;;;;==..,,,,,111,--",
">>,,.......................;;;;;;==..,,,,11,,,--",
">>,,....===;;;;............;;;;;;;;..,,111,,,->>",
",,,,....;;;;;;;==;;;;;;;;==;;;;;;....>111,,,-->>",
",,111,,...==;;;==;;;;;;;;==;;;;;;....11,,,,-->>>",
",11,,,,...==;;=;;;;;;;;;;;;;;;;==..111,,,,-->>>>",
",,,---,,,......==;;;;;;;;;;;;;;....1,,,,,--->>>>",
"-,------,-.....==;;;;;;;;;;;;;;....,,,,,,-->>>>,",
">-->>>>--->>..=;;;;;;;;;;;;;;;;==..,,,,---->>>,1",
">>>>>>>>>>>>..;22..;;;;;<;;;..22;..,,,--->>>,,11",
">>>>>>>>>>>>..;22..;;;;;<;;;..22;..,--->>>>,,11,",
">>>>>>,,>,,,..;....;;;;;;;;;....;..----->>,221,,",
">>>,,,,,,,....;....;;;;;;;;;....;....>>>,,,211,,",
">>,,,,,,,,....;;;;;;;;;;;;;;;;;;;....>>>,,,11,,-",
">,,2,11111..$$$$;;;;;;;.;;;;;;;$$$$..>>,,,11,,--",
",,21111111..$$$$;;;;;;;;;;;;;;;$$$$..>,,,11,,,->",
",1111,,,,,....$$$$;;;;;;;;;;;$$$$....,,,11,,,->>",
"11,,,,,,,,,,..$$$$;;;;=.=;;;;$$$$..111111,,,-->,",
"1,,-,,----,,....==;;;;;;;;;;;==....1,,,,,,-->>,,",
",------->---....==;;;;;;;;;;;==....,,,,,--->>,,,",
"------->>>>-..==;;=;;=====;;=;;==..-,,---,>>>,,,",
"->>>>>>>>>....==;;;;;;===;;;;;;==....-,,>>>>,,,,",
"->>>>>>>>>....;;=;;;;;;;;;;;;;=;;....>>>>>>,,,,,",
">>>>>>,,>>..==;;.;;;;;;;;;;;;;.;;==..>>>>,,,1111",
">>>>,>>>>,..==..;;;;;;;;;;;;;;;..==..,222111,,,,",
">>>,,,,,,,..;;..;;;;;;;;;;;;;;;..;;..22,,,,,,,,,",
">------,,,....==;;;;;;;;;;;;;;;==....,,,,,,,,---",
"---,,,,,,,....==;;;;;;;;;;;;;;;==....,,,,----->>",
">-,,,,,111:*...==;;;=......=;;==...***------->>>",
"--,,,,11,***...==;;;=......=;;==...*%%--->>>>>,,",
",,,,21,,** .;;;.................;;;. %%>>>>>>,,,",
",,,1,,,,%%..;;;.............   .;;;..&&>>>,,,,,,",
",,1,,---%%%&.....+++++XXO###O#  ...%&&*,,,,,,,,,",
",,1,,---&%&&.. ..+++@O###@@@XX  .. &&*,,,,,,,,,,",
",1,,--->>&&&********:#@@@@**%o%%&&&&**,,,,,,,,,,",
",,,,---,,>&********,1,,,,,,%%o%&&*****,,,,,,,,,,"
};
