/* XPM */
static char *result[] = {
/* columns rows colors chars-per-pixel */
"48 48 22 1 ",
"  c black",
". c gray21",
"X c #7C561F",
"o c #7C6022",
"O c #7C6B23",
"+ c #7C7C7C",
"@ c #A65F27",
"# c #956E39",
"$ c #B27B2C",
"% c #F9572E",
"& c #B28A30",
"* c #B29932",
"= c #FFB03F",
"- c #B1A657",
"; c #D59D52",
": c #FE814D",
"> c #FFC545",
", c #FFDB48",
"< c #FFD478",
"1 c #FDEE7D",
"2 c #B2B2B2",
"3 c white",
/* pixels */
"1,,,,,,==>>>,,,,133,,,,,,===>>>,,,,,,,11,,,,,,==",
",,,,,====>>>,,1333,,,,,===>>>>>,,,,,,111,,,,,==>",
",,,====>>>>,,113,,,,=   =>>>>>,,,111111,,,,===>>",
"======>>>>,,1,,,,=== %:3 >,,,,,111111,,,,,,===>>",
"=>>>>>>>>>11,,,===== ::. ,,,,,1111,,,,,,,,===>>>",
">>>>,,,,,11,,,==>>= ::. ,,,,,11,,,,,,,======>>>,",
">,,,,,,111,,,==>>> ::..  ,,111,,,,=======  >>>>,",
",1111111,,,===>>>> %%...3 11,,,=====>>>> :% 3>,,",
"1,,,,,,,,,==>>,,,, %%%..33 ,,,===>,,>>> :3:: ,,,",
"1=====,,==>>>,,,,,, %%.33% , ===>>>>>> 3 :::% 11",
"=======,==>>,,111111 .%%  , : >> >>>> : ..::: 1,",
"=>>>>>==>>>,,11,,11 <;.. == : > : >> %:...::: ,,",
">>>,,>>>>>,3111111, <<<< = 3:: ::% , %%..%::% ==",
">>,,,,,,,1331,,,,,,, <<.; :3 :::::: , %%.%%% ,==",
">>,,,,,111,,,,,,,==== ;;.<.:3::3 3:: ,..%%% ,=>>",
",,,,1111,,,,,,=====>>> ..;.%::3333%.  <<.  ,==>>",
",,111,,,,,,,====>>>>> ;; <<.%%%%%%.<<.;<< ,==>>>",
",11,,,,,,,=====>>>>> ;@ * <;.%....<.<<... ==>>>>",
",,,===,,,====>>>>>,,   ** <<..<<<@<..<< @@ =>>>>",
"=,====   =>>>>>,,,,,,**2-- ;<<<<;;@;; <; @@ >>>,",
">==>> %:3 >>>>,,,,,33322---  ;;;;;;  * #;   >>,1",
">>>>> ::. >>>,,,,,331,11*****      ***$ ; &&,,11",
">>>> ::. >>>,,,,,,3131,,,,*****$$**O$$$&  &**11,",
">>> ::..  ,,,,,,,111,,,,,,  ,,===$$$$$X$>>,++1,,",
">>> %%...3 ,,,,111,,,,,,, :% ====>>>&&o&***311,,",
">>, %%%..33 ,1111,,,,,,, :3:: >=>>>>>>>>,,,11,,=",
">,,3 %%.33% 1 1,,,,===, 3 :::% >>>,>>>>,,,11,,==",
",,311 .%%  1 : ,, ==== : ..::: >>,,,>>,,,11,,,=>",
",111 <;.. ,, : = : => %:...::: >,,,,,,,,11,,,=>>",
"11,, <<<< , 3:: ::% > %%..%::% ,,,,111111,,,==>,",
"1,,=, <<.; :3 :::::: > %%.%%% ,,1111,,,,,,==>>,,",
",===== ;;.<.:3::3 3:: ,..%%% 1111,,,,,,,===>>,,,",
"======= ..;.%::3333%.  <<.  11,,,,==,,===,>>>,,,",
"=>>>>> ;; <<.%%%%%%.<<.;<< 1,,========,,>>>>,,,,",
"=>>>> ;@ & <;.%....<.<<... ,,======,>>>>>>>,,,,,",
">>>>>   && <<..<<<@<..<< @@ ====>>>>>>>>>,,,1111",
">>>>*&&&&** ;<<<<;;@;; <; @@ >>>>>>,,,333111,,,,",
">>>,,,******  ;;;;;;  - ##   ,&>,,,3133,,,,,,,,,",
">======,******      -**$ ; >&&*,,,311,,,,,,,,===",
"===,,,,,,,1--------****$$  &***,,11,,,,,,=====>>",
">=,,,,,1111*********$$=$$&&**,,,11,,,,=======>>>",
"==,,,,11,,,,,,,,=====$$&&&,,,,,11,,,=====>>>>>,,",
",,,,31,,,,,,==========>>>,,,,,11,,=====>>>>>>,,,",
",,,1,,,,=======>>>>>>>>>,,,,,11,,====>>>>>,,,,,,",
",,1,,======>>=>>>>>>>>,,111111,=====>>,,,,,,,,,,",
",,1,,===>=>>>>>>>>>>,1111,,,,,====>>>,,,,,,,,,,,",
",1,,===>>>>>,,,,,,,,11,,,,,,====>>>>,,,,,,,,,,,,",
",,,,===,,>>,,,,,,,,,1,,,,,,====>>,,,,,,,,,,,,,,,"
};
