/* XPM */
static char *result[] = {
/* columns rows colors chars-per-pixel */
"48 48 21 1 ",
"  c black",
". c gray21",
"X c #7C561F",
"o c #7C6022",
"O c #7C6B23",
"+ c #7B743D",
"@ c #A65F27",
"# c #B27B2C",
"$ c #F9572E",
"% c #B28A30",
"& c #B29932",
"* c #FFB03F",
"= c #B1A657",
"- c #D59D52",
"; c #FE814D",
": c #FFC545",
"> c #FFDB48",
", c #FFD478",
"< c #FDEE7D",
"1 c #B2B2B2",
"2 c white",
/* pixels */
"<>>>>>>**:::>>>><22>>>>>>***:::>>>>>>><<>>>>>>**",
">>>>>****:::>><222>>>>>***:::::>>>>>><<<>>>>>**:",
">>>****::::>><<2>>>>*****:::::>>><<<<<<>>>>***::",
"******::::>><>>>>******:::>>>>><<<<<<>>>>>>***::",
"*:::::::::<<>>>******:::>>>>>><<<<>>>>>>>>***:::",
"::::>>>>><<>>>**::*::::>>>>>><<>>>>>>>******:::>",
":>>>>>><<<>>>**:::::::>>>>><<<>>>>*********::::>",
"><<<<<<<>>>***::::::>>>>>><<>>>*****:::::::22:>>",
"<>>>>>>>>>**::>>>>   >>><<<>>>***:>>:::::222>>>>",
"<*****>>**:::>>>> $;2 <<<>>>>***:::::::222>>>><<",
"*******>**::>><<< ;;. >>>>>>**::::::::::>>>>><<>",
"*:::::**:::>><<> ;;. >>>>****::::::::>>>>>>><<>>",
":::>>:::::>2<<< ;;..  *>***::::::::>>>  >><<<>**",
"::>>>>>>><22<>> $$...2 ****:::::>>::> ;$ <<>>>**",
"::>>>>><<<>>>>> $$$..22 ::::::>>:>>: ;2;; >>>*::",
">>>><<<<>>>>>>** $$.22$ : ::::::::: 2 ;;;$ >**::",
">><<<>>>>>>>****: .$$  : ; >> >>>: ; ..;;; **:::",
"><<>>>>>>>*****: ,-.. :> ; > ; >> $;...;;; *::::",
">>>***>>>****::: ,,,, > 2;; ;;$ > $$..$;;$ *::::",
"*>******>*:::::>> ,,.- ;2 ;;;;;; < $$.$$$ *::::>",
":**::::***::::>>>> --.,.;2;;2 2;; >..$$$ **:::><",
":::::::::::::>>>>>2 ..-.$;;2222$.  ,,.  *:::>><<",
"::::::::::::>>>>>> -- ,,.$$$$$$.,,.-,, ::::>><<>",
"::::::>>:>>>>>>>> -@ & ,-.$....,.,,... *::>22<>>",
":::>>>>>>>>>>>><<   && ,,..,,,@,..,, @@ >>>2<<>>",
"::>   >>>>>>><<<<&&&&OO -,,,,--@-- ,- @@ >><<>>*",
":> $;2 <<<<<<<<>>>&###OX  ------  O --   ><<>>**",
">> ;;. <<<<<<>>>>****##XXX      oOO& - >><<>>>*:",
"> ;;. >>>>>>>>>*****::::%%oOOooo&&&&&  ><<>>>*::",
" ;;..  >>>>>>>**:::::::  :&&%%%&&&><<<<<<>>>**:>",
" $$...2 **>>>**::::::: ;$ ::::>><<<<>>>>>>**::>>",
" $$$..22 ******::::>> ;2;; >><<<<>>>>>>>***::>>>",
"* $$.22$ : ****::::> 2 ;;;$ <<>>>>**>>***>:::>>>",
"*: .$$  : ; *: :::> ; ..;;; >>********>>::::>>>>",
"* ,-.. :: ; : ; :> $;...;;; >******>:::::::>>>>>",
": ,,,, > 2;; ;;$ > $$..$;;$ ****:::::::::>>><<<<",
"%% ,,.- ;2 ;;;;;; > $$.$$$ **::::::>>>222<<<>>>>",
"%%% --.,.;2;;2 2;; >..$$$ *::>::>>>2<22>>>>>>>>>",
"%*#* ..-.$;;2222$.  ,,.  *::::>>>>2<<>>>>>>>>***",
"*## -- ,,.$$$$$$.,,.-,, **::>>>>><<>>>>>>*****::",
":# -@ & ,-.$....,.,,... *::>>>>><<>>>>*******:::",
"*#   O+ ,,..,,,@,..,, @@ :>>>>><<>>>*****:::::>>",
">&&&1=OO -,,,,--@-- ,- @@ &&>><<>>*****::::::>>>",
">>&=&&&OX  ------  % --   &&&<<>>****:::::>>>>>>",
">><>>###XXX      ooo% - ==+<=<>*****::>>>>>>>>>>",
">><>>***%#oo%ooo%oo%&=  =&OO&&****:::>>>>>>>>>>>",
"><>>***:::::>&&OOO&><=&&&&&&##**::::>>>>>>>>>>>>",
">>>>***>>::>>>>>>>>><>>>>>>****::>>>>>>>>>>>>>>>"
};
