/* XPM */
static char *result[] = {
/* columns rows colors chars-per-pixel */
"48 48 12 1 ",
"  c black",
". c #7C561F",
"X c red",
"o c #B27B2C",
"O c #B28A30",
"+ c #B29932",
"@ c #FFB03F",
"# c #FFC545",
"$ c #FFDB48",
"% c #FDEE7D",
"& c #ADAFB2",
"* c white",
/* pixels */
"%$$$$$$@@###$$$$                $$$$$$%%$$$$$$@@",
"$$$$$@@@@###$$%*                $$$$$%%%$$$$$@@#",
"$$$@@@@####$$%%*                $%%%%%%$$$$@@@##",
"@@@@@@####$$%$$$                %%%%%$$$$$$@@@##",
"@#######        XXXXXXXXXXXXXXXX        $$@@@###",
"####$$$$        XXXXXXXXXXXXXXXX        @@@@###$",
"#$$$$$$%        XXXXXXXXXXXXXXXX        @@@####$",
"$%%%%%%%        XXXXXXXXXXXXXXXX        ###**#$$",
"%$$$    XXXXXXXX****XXXXXXXXXXXXXXXXXXXX    $$$$",
"%@@@    XXXXXXXX****XXXXXXXXXXXXXXXXXXXX    $$%%",
"@@@@    XXXXXXXX****XXXXXXXXXXXXXXXXXXXX    $%%$",
"@###    XXXXXXXX****XXXXXXXXXXXXXXXXXXXX    %%$$",
"###$    XXXX************XXXXXXXXXXXXXXXX    %$@@",
"##$$    XXXX************XXXXXXXXXXXXXXXX    $$@@",
"##$$    XXXX************XXXXXXXXXXXXXXXX    $@##",
"$$$$    XXXX************XXXXXXXXXXXXXXXX    @@##",
"    XXXXXXXXXXXX****XXXXXXXXXXXXXXXXXXXXXXXX    ",
"    XXXXXXXXXXXX****XXXXXXXXXXXXXXXXXXXXXXXX    ",
"    XXXXXXXXXXXX****XXXXXXXXXXXXXXXXXXXXXXXX    ",
"    XXXXXXXXXXXX****XXXXXXXXXXXXXXXXXXXXXXXX    ",
"    XXXXXXXXXXXXXXXX        XXXXXXXXXXXXXXXX    ",
"    XXXXXXXXXXXXXXXX        XXXXXXXXXXXXXXXX    ",
"    XXXXXXXXXXXXXXXX        XXXXXXXXXXXXXXXX    ",
"    XXXXXXXXXXXXXXXX        XXXXXXXXXXXXXXXX    ",
"        XXXXXXXX    ****&&&&    XXXXXXXX        ",
"        XXXXXXXX    ****&&&&    XXXXXXXX        ",
"        XXXXXXXX    ****&&&&    XXXXXXXX        ",
"        XXXXXXXX    ****&&&&    XXXXXXXX        ",
"    ****            &&&&&&&&            &&&&    ",
"    ****            &&&&&&&&            &&&&    ",
"    ****            &&&&&&&&            &&&&    ",
"    ****            &&&&&&&&            &&&&    ",
"@@@@    ************        &&&&&&&&&&&&    #$$$",
"@###    ************        &&&&&&&&&&&&    $$$$",
"@###    ************        &&&&&&&&&&&&    $$$$",
"####    ************        &&&&&&&&&&&&    %%%%",
"####    &&&&************&&&&&&&&&&&&&&&&    ++$$",
"###$    &&&&************&&&&&&&&&&&&&&&&    +++$",
"#@@@    &&&&************&&&&&&&&&&&&&&&&    +oo@",
"@@@$    &&&&************&&&&&&&&&&&&&&&&    .oO#",
"#@$$$$$%        &&&&&&&&&&&&&&&&        oooooOO#",
"@@$$$$%%        &&&&&&&&&&&&&&&&        oOOOOO+$",
"$$$$*%$$        &&&&&&&&&&&&&&&&        OOOOO+$$",
"$$$%$$$$        &&&&&&&&&&&&&&&&        OO+++$$$",
"$$%$$@@@@@@##@##                ooooOO+++++++$$$",
"$$%$$@@@#@######                ooOOO++++++$$$$$",
"$%$$@@@#####$$$$                OOOO++++$$$$$$$$",
"$$$$@@@$$##$$$$$                O++++$$$$$$$$$$$"
};
