/* XPM */
static char *result[] = {
/* columns rows colors chars-per-pixel */
"48 48 5 1 ",
"  c #FFB03F",
". c #FFC545",
"X c #FFDB48",
"o c #FDEE7D",
"O c white",
/* pixels */
"oXXXXXX  ...XXXXoOOXXXXXX   ...XXXXXXXooXXXXXX  ",
"XXXXX    ...XXoOOOXXXXX   .....XXXXXXoooXXXXX  .",
"XXX    ....XXooOXXXX     .....XXXooooooXXXX   ..",
"      ....XXoXXXX      ...XXXXXooooooXXXXXX   ..",
" .........ooXXX      ...XXXXXXooooXXXXXXXX   ...",
"....XXXXXooXXX  .. ....XXXXXXooXXXXXXX      ...X",
".XXXXXXoooXXX  .......XXXXXoooXXXX         ....X",
"XoooooooXXX   ......XXXXXXooXXX     .......OO.XX",
"oXXXXXXXXX  ..XXXXXXXXXXoooXXX   .XX.....OOOXXXX",
"o     XX  ...XXXXXXXXooooXXXX   .......OOOXXXXoo",
"       X  ..XXooooooooXXXXXX  ..........XXXXXooX",
" .....  ...XXooXXooooXXXX    ........XXXXXXXooXX",
"...XX.....XOooooooXXXX X   ........XXXXXXXoooX  ",
"..XXXXXXXoOOoXXXXXXXX      .....XX..XXXXXooXXX  ",
"..XXXXXoooXXXXXXX     ........XX.XX..XXoooXXX ..",
"XXXXooooXXXXXX     ...................oooXXX  ..",
"XXoooXXXXXXX    .........XXXXXXXX..XXooXXXX  ...",
"XooXXXXXXX     ........XXXXXXXXXXXXoooXXXX  ....",
"XXX   XXX    .....XXXXXXXXXXXXXXXoooXXXXX   ....",
" X      X .....XXXXXXXXOooooXXXooooXXXXXX  ....X",
".  ....   ....XXXXXOOOOOooooooooXXXXXXX    ...Xo",
".............XXXXXOOoXooXXXXXXXXXXXXXX   ...XXoo",
"............XXXXXXOoOoXXXXXXXXX  XXX   ....XXooX",
"......XX.XXXXXXXXoooXXXXXXXXXX          ..XOOoXX",
"...XXXXXXXXXXXXoooXXXXXXXXXX     .......XXXOooXX",
"..XXXXXXXXXXXooooXXXXXXXXX    . ........XXXooXX ",
".XXOXooooooooooXXXX   X      .....X....XXXooXX  ",
"XXOooooooooooXXXX          ......XXX..XXXooXXX .",
"XooooXXXXXXXXXX     .......XX...XXXXXXXXooXXX ..",
"ooXXXXXXXXXXXX  ..........XX...XXXXooooooXXX  .X",
"oXX XX    XXX  ...............XXooooXXXXXX  ..XX",
"X       .      ....XXXXXXXXXXooooXXXXXXX   ..XXX",
"       ....    ....XXXXXXXXoooXXXX  XX   X...XXX",
" ..........  .....XXXXXXXoooXX        XX....XXXX",
" ................XXXXXXXooXXX      X.......XXXXX",
"......XX..XXXXXXXXXXXXXooXX     .........XXXoooo",
"....X....XXXXXXXXXXXXXooXX   ......XXXOOOoooXXXX",
"...XXXXXXXXXXXXXXXXXoooX   ..X..XXXOoOOXXXXXXXXX",
".      XXXXXXXXXXXoooXX   ....XXXXOooXXXXXXXX   ",
"   XXXXXXXoooooooooXXXX   ..XXXXXooXXXXXX     ..",
". XXXXXooooXXXXXXXXX     ..XXXXXooXXXX       ...",
"  XXXXooXXXXXXXX       ...XXXXXooXXX     .....XX",
"XXXXOoXXXXXX          ...XXXXXooXX     ......XXX",
"XXXoXXXX       .........XXXXXooXX    .....XXXXXX",
"XXoXX      .. ........XXooooooX     ..XXXXXXXXXX",
"XXoXX   . ..........XooooXXXXX    ...XXXXXXXXXXX",
"XoXX   .....XXXXXXXXooXXXXXX    ....XXXXXXXXXXXX",
"XXXX   XX..XXXXXXXXXoXXXXXX    ..XXXXXXXXXXXXXXX"
};
