/* XPM */
static char *result[] = {
/* columns rows colors chars-per-pixel */
"48 48 21 1 ",
"  c black",
". c #574B19",
"X c #7C561F",
"o c #7C6022",
"O c #7C6B23",
"+ c #7B743D",
"@ c #615E61",
"# c #DF3E23",
"$ c #AE7213",
"% c #B27B2C",
"& c #B28A30",
"* c #B29932",
"= c #F9A31B",
"- c #FFB03F",
"; c #FFF200",
": c #B1A657",
"> c #FFC545",
", c #FFDB48",
"< c #FDEE7D",
"1 c #B2B2B2",
"2 c white",
/* pixels */
"<,,,,,,-->>>,,,,<22,,,,,,--->>>,,,,,,,<<,,,,,,--",
",,,,,---->>>,,<222,,,,,--->>>>>,,,,,,<<<,,,,,-->",
",,,---->>>>,,<<2,,,,----->>>>>,,,<<<<<<,,,,--->>",
"------>>>>,,<,,,,------>>>,,,,,<<<<<<,,,,,,--->>",
"->>>>>>>>><<,,,------>>>,,,,,,<<<<,,,  ,,,--->>>",
">>>>,,,,,<<,,,-->>->>>>,,,,,,<<,,,,,,  ----->>>,",
">,,,,,,<<<,,,-->    >>,,,,,<<<,,,,-  ;;  -->>>>,",
",<<<<<<<,,,--->>    ,,,,,,<<,,,----  ;;  >>22>,,",
"<,,,,,,,,,-->>  @@  ,,,,<<<,,,---  ;;====  2,,,,",
"<-----,,-->>>,  @@  ,<<<<,,,,--->  ;;====  ,,,<<",
"-------,-->>,,  ;;  <<,,,,,,     ;;======  ,,<<,",
"->>>>>-->>>,,<  ;;  <,,,,---     ;;======  ,<<,,",
">>>,,>>>>>,2  ;;==  ,,-,    @@@  ======  ,<<<,--",
">>,,,,,,,<22  ;;==  ,---    @@@  ======  <<,,,--",
">>,,,,,<<<,,  ;;;;      ;;;@@  ======  <<<,,,->>",
",,,,<<<<,,,,  ;;;;;;    ;;;@@  ======  <<,,,-->>",
",,<<<,,,,,  ;;;;;;;;;;;;;;;    ====  <<,,,,-->>>",
",<<,,,,,,,  ;;;;;;;;;;;;;;;    ====  <,,,,-->>>>",
",,,---,,  ;;;;;;;;;;;;;;;==  @@  ====  ,,--->>>>",
"-,------  ;;;;;;;;;;;;;;;==  @@  ====  ,,-->>>>,",
">-->>>  22;;;;;;;;;;;;;;;;;  @@@@  ==  ---->>>,<",
">>>>>>  22;;;;;;;;;;;;;;;;;  @@@@  ==  -->>&**+:",
">>>>>>    ;;;;;;;;;;;;;;;;;==    ==  -->>&&O*:+O",
">>>>>>    ;;;;;;;;;;;;;;;;;==    ==  --%&&*11:,,",
">>>,,,  ;;;;;;;22  ;;;;;;====      >>>>&O**1:<,,",
">>,,,,  ;;;;;;;22  ;;;;;;====      >>&&&***:<,,-",
">,,2,<<<  ;;;;;    ####;;==@@@@  >,&&&&***:<,,--",
",,2<<<<<  ;;;;;    ####;;==@@@@  ***&&*O*::,,,->",
",<<<<,,,,,  ==;;;;;##==========  ***OOO*:<O,,->>",
"<<,,,,,,,,  ==;;;;;##==========  **+++++:O*,-->,",
"<,,-,,--  ;;===========  ====@@  +++OO*.O*%->>,,",
",-------  ;;===========  ====@@  *OOOO..-%%>>,,,",
"------->      ;;;;;;;  ;;=====$  OXXOOX%%*>>>,,,",
"->>>>>>>      ;;;;;;;  ;;=====$  XX%XXO*&&>>,,,,",
"->>>>>>>>>  ==  ;;;;;;;  ======  X%O&o&&&>>,,,,,",
">>>>>>,,>>  ==  ;;;;;;;  ======  oo&&&&>>,,,<<<<",
">>>>,>>>>,         ==========  >oo&***222<<<,,,,",
">>>,,,,,,,         ==========  o***1<22,,,,,,,,,",
">------,,,,,******:      ==    O*O1<<,,,,,,,,---",
"---,,,,,,,<<<<<::::      ==    ,*:<,,,,,,----->>",
">-,,,,,<<<<,,,,*****%  ;;;;==  *:<,,,,------->>>",
"--,,,,<<,,,,,,,,--%%%  ;;;;==  :<,,,----->>>>>,,",
",,,,2<,,,,,,--------%%&      *:<,,----->>>>>>,,,",
",,,<,,,,------->>>>>>>>      ::,,---->>>>>,,,,,,",
",,<,,------>>->>>>>>>>,*::::::,----->>,,,,,,,,,,",
",,<,,--->->>>>>>>>>>,<<<<,,,,,---->>>,,,,,,,,,,,",
",<,,--->>>>>,,,,,,,,<<,,,,,,---->>>>,,,,,,,,,,,,",
",,,,---,,>>,,,,,,,,,<,,,,,,---->>,,,,,,,,,,,,,,,"
};
