/* XPM */
static char *result[] = {
/* columns rows colors chars-per-pixel */
"48 48 18 1 ",
"  c black",
". c #7C561F",
"X c #7C6022",
"o c #7C6B23",
"O c #615E61",
"+ c #DF3E23",
"@ c #B27B2C",
"# c #B28A30",
"$ c #B29932",
"% c #F9A31B",
"& c #FFB03F",
"* c #FFF200",
"= c #B1A657",
"- c #FFC545",
"; c #FFDB48",
": c #FDEE7D",
"> c #B2B2B2",
", c white",
/* pixels */
":;;;;;;&&--  ;;;:,,;;;;;;&&&---;;;;;;;::;;;;;;&&",
";;;;;&&&&--  ;:,,,;;;;;&&&-----;;;;;;:::;;;;;&&-",
";;;&&&&--  **  ,;;;;&&&&&-----    :::::;;;;&&&--",
"&&&&&&---  **  ;;&&&&&&---;;;;    :::;;;;;;&&&--",
"&------  %%%%**  &&&&---;;;;;;  OO  ;;;;;;&&&---",
"----;;;  %%%%**  -&----;;;;;;:  OO  ;;&&&&&&---;",
"-;;;;;;  %%%%%%**     ;;;;;:::  **  &&&&&&&----;",
";::::::  %%%%%%**     ;;;;::;;  **  -------,,-;;",
":;;;;;;;;  %%%%%%  OOO    :;;;  %%**  ---,,,;;;;",
":&&&&&;;&  %%%%%%  OOO    ;;;&  %%**  -,,,;;;;::",
"&&&&&&&;&&-  %%%%%%  OO***      ****  --;;;;;::;",
"&-----&&---  %%%%%%  OO***    ******  ;;;;;;::;;",
"---;;-----;,:  %%%%    ***************  ;;:::;&&",
"--;;;;;;;:,,:  %%%%    ***************  ;::;;;&&",
"--;;;;;:::;  %%%%  OO  %%***************  ;;;&--",
";;;;::::;;;  %%%%  OO  %%***************  ;;&&--",
";;:::;;;;;;  %%  OOOO  *****************,,  &---",
";::;;;;;;;&  %%  OOOO  *****************,,  ----",
";;;&&&;;;&&&&  %%    %%*****************    ----",
"&;&&&&&&;&---  %%    %%*****************    ---;",
"-&&----&&&----;      %%%%******  ,,*******  --;:",
"-------------;;      %%%%******  ,,*******  ;;::",
"------------;;;;;  OOOO%%**++++    *****  -;;::;",
"------;;-;;;;;;;;  OOOO%%**++++    *****  ;,,:;;",
"---;;;;;;;;;;;;::  %%%%%%%%%%++*****%%  ;;;,::;;",
"--;;;;;;;;;;;::::  %%%%%%%%%%++*****%%  ;;;::;;&",
"-;;,;::::::::::;;  OO%%%%  %%%%%%%%%%%**  ::;;&&",
";;,::::::::::;;;;  OO%%%%  %%%%%%%%%%%**  :;;;&-",
";::::;;;;;;;;;;&&  %%%%%%**  *******      ;;;&--",
"::;;;;;;;;;;;;&&-  %%%%%%**  *******      ;;&&-;",
":;;&;;&&&&;;;&&--  %%%%%%  *******  %%  $$&&--;;",
";&&&&&&&-&&&&&&--  %%%%%%  *******  %%  @@&--;;;",
"&&&&&&&----&&&&----  %%%%%%%%%%         @$---;;;",
"&----------&&-----;  %%%%%%%%%%         ##--;;;;",
"&----------------;;    %%      ....oX######;;;;;",
"------;;--;;;;;;;;;    %%      .XXXXX####$$;::::",
"----;----;;;;;;;;;;  %%****  XXXXXXo$$>>>==:;;;;",
"---;;;;;;;;;;;;;;;;  %%****  oXXooo>=>>$$$$;;;;;",
"-&&&&&&;;;;;;;;;;;:::      XXXoooo>==$$$$$$;;&&&",
"&&&;;;;;;;:::::::::;;      Xoooo$==$$$$$$.@&&&--",
"-&;;;;;::::;;;;;;;;;&&&&@##$$$$$==$$$$@@@@&&&---",
"&&;;;;::;;;;;;;;&&&&&&&--#$$$$$==$$$@@@@@#----;;",
";;;;,:;;;;;;&&&&&&&&&&--#$$$$$==$$@@@@@X#----;;;",
";;;:;;;;&&&&&&&--------#$$$$;==$$@@@@XX#--;;;;;;",
";;:;;&&&&&&--&--------;$=:::::;@@@@@X#;;;;;;;;;;",
";;:;;&&&-&----------;::::;;;;;&&&&---;;;;;;;;;;;",
";:;;&&&-----;;;;;;;;::;;;;;;&&&&----;;;;;;;;;;;;",
";;;;&&&;;--;;;;;;;;;:;;;;;;&&&&--;;;;;;;;;;;;;;;"
};
