/* XPM */
static char *result[] = {
/* columns rows colors chars-per-pixel */
"48 48 12 1 ",
"  c black",
". c #060608",
"X c #71413B",
"o c #BB7547",
"O c #F9A31B",
"+ c #FFB03F",
"@ c #FFF200",
"# c #FFC545",
"$ c #FFD541",
"% c #FFDB48",
"& c #FDEE7D",
"* c white",
/* pixels */
"&%%%%%%++###%%%%&**%%%%%%+++###%%%%%%%&&%%%%%%++",
"%%%%%++++###%%&***%%%%%+++#####%%%%%%&&&%%%%%++#",
"%%%++++####%%&&*%%%%+++++#####%%%&&&&&&%%%%+++##",
"++++++####%%&%%%%++++++###%%%%%&&&&&&%%%%%%+++##",
"+######...$$$$%++++++###%%%%%%&&$$$....%%%+++###",
"####%%%.......++##+####%%%%%%&&%.......+++++###%",
"#%%%%%%.......$$######%%%%%&&&$........++++####%",
"%&&&&&&........$####%%%%%%&&%%........$####**#%%",
"&%%%%%%$........%%%%%%%%&&&%%%........$##***%%%%",
"&+++++%$........%%%%......%%%+........$***%%%%&&",
"+++++++$.....@@@..&.@@@@@@.%..@@@....$##%%%%%&&%",
"+#####++.....@@OO..@@@@@@@@..O@@@....%%%%%%%&&%%",
"###%%####..@@@@O@O..@@@@@@..O@@@@OO..%%%%%&&&%++",
"##%%%%%%%..@@@@@@OO@@@@@@@@OO@@@@OO..%%%%&&%%%++",
"##%%%%%&&..@@@@@@OOO@@@@@@OOO@@@@@@..$%&&&%%%+##",
"%%%%&&&&%...@@@OO@@O@@@@@OO@@@@@@...$#&&&%%%++##",
"%%&&&%%%%...@@@OO@@O@@@@@OO@@@@@@...$&&%%%%++###",
"%&&%%%%%%$..@@O@@@@@@@@@@@@@@@@OO..&&&%%%%++####",
"%%%+++%%%$.....OO@@@@@@@@@@@@@............++####",
"+%++++++%+.....OO@@@@@@@@@@@@@............+####%",
"#++####+++##..O@@@@@@@@@@@@@@@.OO@@@@@@@..+###%&",
"############..@@@@@@@@@@@@@@@@.@@@@@@@@@..##%%&&",
"############..@@@@@@@@@@@@@@@..@@@@@@@@@..#%%&&%",
"######%%#%%%..@@@@@@@@@@@@@....@@@@@@@...#%**&%%",
"###%%%%%%%$...@@@@@@@@@@@@@.@O@@@@@@@@..%%%*&&%%",
"##%%%%%%%%....@@@@@oo@@@@...OO@@@@@....#%%%&&%%+",
"#%%*%&&&&&..O@@@@@@XXX@@....@@@@@@@....%%%&&%%++",
"%%*&&&&&&&..OO@@@@@@@ooo.@OO@@@O.....#%%%&&%%%+#",
"%&&&&%%%%%$..O@@@@ooXX@@.@OOO@@O.....%%%&&%%%+##",
"&&%%%%%%%%$%.@@@@ooooo...@@@@O@..%%&&&&&&%%%++#%",
"&%%+%%++++%%...@@O@@@o.OOO@@@@@..&&&%%%%%%++##%%",
"%+++++++#+++....OO@@@o.@OO@@......$%%%%%+++##%%%",
"+++++++####+..OO@@O@@O.@OO@@..@OO..+%%+++%###%%%",
"+#########$...OO@@@@@@.XO....@@OO..+++%%####%%%%",
"+#########....@@O@XXXo.@X..@@@O@@..%#######%%%%%",
"######%%##..OO@@.@XXXX.@O..@@@.@@..######%%%&&&&",
"####%####%..OO..@@@@@@.X..@@@@@....%%%***&&&%%%%",
"###%%%%%%%..@@..@@@@@@.X.@@@@@@...$*&**%%%%%%%%%",
"#++++++%%%....OO@@@@@@...@@@@@@...*&&%%%%%%%%+++",
"+++%%%%%%%....OO@@@@@@@@@@@@@@@..&&%%%%%%+++++##",
"#+%%%%%&&&&%...OO@@@O@@@@@@O@@@..&%%%%+++++++###",
"++%%%%&&%%%%...OO@@@@@@@@@@@@...&%%%+++++#####%%",
"%%%%*&%%%%%%++...@@@@@...@@@@..&%%+++++######%%%",
"%%%&%%%%++++++..........      &%%++++#####%%%%%%",
"%%&%%++++++##+########%%.@@@@.%+++++##%%%%%%%%%%",
"%%&%%+++#+##########%&&&.OOO..++++###%%%%%%%%%%%",
"%&%%+++#####%%%%%%%%&&%%.....+++####%%%%%%%%%%%%",
"%%%%+++%%##%%%%%%%%%&%%%%%%++++##%%%%%%%%%%%%%%%"
};
