/* XPM */
static char *result[] = {
/* columns rows colors chars-per-pixel */
"48 48 30 1 ",
"  c black",
". c #2E1600",
"X c #2B240C",
"o c #3D3411",
"O c #392A22",
"+ c #573C16",
"@ c #443228",
"# c #593E2F",
"$ c #523C31",
"% c #574318",
"& c #574B18",
"* c #7C561F",
"= c #57512B",
"- c #614739",
"; c #7C6022",
": c #7C6B23",
"> c #7C743D",
", c #B27B2C",
"< c #805944",
"1 c #B28A30",
"2 c #B29932",
"3 c #FFB03F",
"4 c #A3815F",
"5 c #B1A657",
"6 c #B8A477",
"7 c #FFC545",
"8 c #FFDB48",
"9 c #FDEE7D",
"0 c #DBD0B8",
"q c white",
/* pixels */
"98888883377788889qq88888833377788888889988888833",
"888883333777889qqq888883337777788888899988888337",
"888333377778899q88883333377777888999999888833377",
"333333777788988883333337778888899999988888833377",
"377777777799888333333777888888999988888888333777",
"777788888998883377377778888889988888883333337778",
"788888899988833777777788888999888833333333377778",
"8999999988833377777788888899888333337777777qq788",
"98888888883377888888888899988833378877777qqq8888",
"933333883377788888888999988883337777777qqq888899",
"333333383377889999999988888833777777777788888998",
"377777337778899889999888833337777777788888889988",
"77788777778q999999888838333777777778888888999833",
"7788888889qq988888     3333777778877888889988833",
"778888899988888   44444    777887887788999888377",
"888899998888   466666666666  7777777779998883377",
"88999888888 <4666666666666666  88778899888833777",
"8998888888 <<666666666666666644 8889998888337777",
"888333888 44444666660444444<<-- 8999888883337777",
"383333338 -<44444000444<4<<<--$ 9998888883377778",
"73377773 --<44-44404<<<4<<-<--$$ 888888333377789",
"77777777 $44<<44444<<4<4<<<<---$ 888883337778899",
"77777777 -4-<<4<44<<<<<<<<<<<--$ 888333777788998",
"77777788 $44444444<<<-<<<<....-$ ,,,,333778qq988",
"77788888 -<<-44444<<<<<<<.<<<<..  ;;;117888q9988",
"77888888 -<44<444<-<<-<<.<<444444< ;;;;188899883",
"788q8999 -...--4<<<<<--.<<<44444<<- %%;:28998833",
"88q999999.<4<.$--...<--.44444<<<<--$ %::29988837",
"89999888.$-4<-$-.$$<.<<.<444<<<---$$ o&259888377",
"9988888 --<-<$. $<44. <.<<$<<<4-4$$$ ==558     8",
"   3883 -<44< .;    %% 4.$$<$<<--$$ ::8   44444 ",
"666  333     **;;1;:&&&            2   466666666",
"66666  7771,***;;11:&&&&&&&===&&::* <46666666666",
"6666644 7773,11;;182::&&&===&&*+** <<66666666666",
"444<<-- 777777717882:&&&==&&&*+** 44444666660444",
"4<<<--$ 7788888888822::>>::**++,1 -<44444000444<",
"<<-<--$$ 88888888882225522,,,1;1 --<44-44404<<<4",
"<<<<---$ 888888888885552,,,11:77 $44<<44444<<4<4",
"<<<<<--$ 88888888899988333777788 -4-<<4<44<<<<<<",
"<<....-$ 89999999998888333778888 $44444444<<<-<<",
"<.<<<<..  5288888888333337788888 -<<-44444<<<<<<",
".<<444444# ::2283333333777888889 -<44<444<-<<-<<",
"<<<44444<<@ **,,3333337778888899 -...--4<<<<<--.",
"44444<<<<--$ ++;17777777888889988.<4<.$--...<--.",
"<444<<<---$$ +%;1777778899999983.$-4<-$-.$$<.<<.",
"<<$<<<4-4$$$ %%;117789999888883 --<-<$. O<44. <.",
".$$<$<<--$$ &&&:288899888888333 -<44< .o    o& 4",
"           :&&288888988888833337     :oXooo&oo& "
};
